<mxfile host="drawio-plugin" modified="2024-06-11T22:21:21.186Z" agent="5.0 (Windows NT 10.0; Win64; x64) AppleWebKit/537.36 (KHTML, like Gecko) Chrome/111.0.0.0 Safari/537.36" etag="vrzTqtR6H6dqaAUpv-wC" version="20.5.3" type="embed"><diagram id="ERxrzM34JgP0kjhDalQf" name="Page-1"><mxGraphModel dx="424" dy="416" grid="1" gridSize="10" guides="1" tooltips="1" connect="1" arrows="1" fold="1" page="0" pageScale="1" pageWidth="827" pageHeight="1169" background="#EEEEEE" math="0" shadow="0"><root><mxCell id="0"/><mxCell id="1" parent="0"/><mxCell id="224" value="Segretario" style="shape=umlActor;verticalLabelPosition=bottom;verticalAlign=top;html=1;outlineConnect=0;fillColor=#2A2A2A;strokeColor=#000000;fontColor=#1C1C1C;" parent="1" vertex="1"><mxGeometry x="-80" y="50" width="30" height="60" as="geometry"/></mxCell><mxCell id="225" value="" style="endArrow=none;html=1;rounded=0;fontColor=#0D0D0D;strokeColor=#191919;strokeWidth=2;" parent="1" edge="1"><mxGeometry width="50" height="50" relative="1" as="geometry"><mxPoint x="-70" y="170" as="sourcePoint"/><mxPoint x="-70" y="140" as="targetPoint"/></mxGeometry></mxCell><mxCell id="228" value="" style="swimlane;startSize=0;strokeColor=#000000;fontColor=#0D0D0D;fillColor=#2A2A2A;strokeWidth=2;" parent="1" vertex="1"><mxGeometry x="30" y="60" width="100" height="60" as="geometry"/></mxCell><mxCell id="230" value="AddModel" style="text;html=1;align=center;verticalAlign=middle;resizable=0;points=[];autosize=1;strokeColor=none;fillColor=none;fontColor=#0D0D0D;" parent="228" vertex="1"><mxGeometry x="10" y="15" width="80" height="30" as="geometry"/></mxCell><mxCell id="231" value="" style="swimlane;startSize=0;strokeColor=#000000;fontColor=#0D0D0D;fillColor=#2A2A2A;strokeWidth=2;" parent="1" vertex="1"><mxGeometry x="180" y="60" width="100" height="60" as="geometry"/></mxCell><mxCell id="232" value="AddImage" style="text;html=1;align=center;verticalAlign=middle;resizable=0;points=[];autosize=1;strokeColor=none;fillColor=none;fontColor=#0D0D0D;" parent="231" vertex="1"><mxGeometry x="10" y="15" width="80" height="30" as="geometry"/></mxCell><mxCell id="234" value="" style="endArrow=classic;html=1;rounded=0;strokeColor=#191919;strokeWidth=2;fontColor=#0D0D0D;entryX=-0.092;entryY=0.25;entryDx=0;entryDy=0;entryPerimeter=0;" parent="1" target="266" edge="1"><mxGeometry width="50" height="50" relative="1" as="geometry"><mxPoint x="-70" y="190" as="sourcePoint"/><mxPoint x="80" y="190" as="targetPoint"/></mxGeometry></mxCell><mxCell id="237" value="handleAutoClicked" style="text;html=1;strokeColor=none;fillColor=none;align=center;verticalAlign=middle;whiteSpace=wrap;rounded=0;labelBackgroundColor=none;strokeWidth=2;fontColor=#0D0D0D;" parent="1" vertex="1"><mxGeometry x="-30" y="190" width="60" height="30" as="geometry"/></mxCell><mxCell id="299" style="edgeStyle=orthogonalEdgeStyle;rounded=0;orthogonalLoop=1;jettySize=auto;html=1;dashed=1;strokeColor=#0D0D0D;strokeWidth=2;endArrow=classic;endFill=1;entryX=0;entryY=0.25;entryDx=0;entryDy=0;startArrow=none;" parent="1" target="298" edge="1"><mxGeometry relative="1" as="geometry"><mxPoint x="83.33333333333333" y="190" as="sourcePoint"/></mxGeometry></mxCell><mxCell id="266" value="" style="swimlane;startSize=0;labelBackgroundColor=none;strokeColor=#000000;strokeWidth=2;fontColor=#0D0D0D;fillColor=#2A2A2A;" parent="1" vertex="1"><mxGeometry x="75" y="170" width="10" height="80" as="geometry"/></mxCell><mxCell id="267" value="" style="endArrow=none;html=1;rounded=0;fontColor=#0D0D0D;strokeColor=#191919;strokeWidth=2;entryX=0.5;entryY=1;entryDx=0;entryDy=0;" parent="1" edge="1" target="228"><mxGeometry width="50" height="50" relative="1" as="geometry"><mxPoint x="80" y="170" as="sourcePoint"/><mxPoint x="79.75999999999999" y="150" as="targetPoint"/></mxGeometry></mxCell><mxCell id="269" value="" style="endArrow=none;html=1;rounded=0;fontColor=#0D0D0D;strokeColor=#191919;strokeWidth=2;dashed=1;entryX=0.497;entryY=1.03;entryDx=0;entryDy=0;entryPerimeter=0;" parent="1" edge="1" target="231"><mxGeometry width="50" height="50" relative="1" as="geometry"><mxPoint x="230" y="600" as="sourcePoint"/><mxPoint x="229.69" y="150.00000000000006" as="targetPoint"/></mxGeometry></mxCell><mxCell id="274" value="" style="endArrow=none;dashed=1;html=1;rounded=0;strokeWidth=2;strokeColor=#000000;" parent="1" edge="1"><mxGeometry width="50" height="50" relative="1" as="geometry"><mxPoint x="-70" y="350" as="sourcePoint"/><mxPoint x="-70" y="170" as="targetPoint"/></mxGeometry></mxCell><mxCell id="275" value="" style="endArrow=none;dashed=1;html=1;rounded=0;strokeWidth=2;strokeColor=#000000;" parent="1" edge="1"><mxGeometry width="50" height="50" relative="1" as="geometry"><mxPoint x="-70" y="490" as="sourcePoint"/><mxPoint x="-70" y="355" as="targetPoint"/></mxGeometry></mxCell><mxCell id="276" value="" style="endArrow=none;dashed=1;html=1;rounded=0;strokeWidth=2;strokeColor=#000000;startArrow=none;exitX=0;exitY=1.007;exitDx=0;exitDy=0;exitPerimeter=0;" parent="1" edge="1" source="397"><mxGeometry width="50" height="50" relative="1" as="geometry"><mxPoint x="-65" y="1090" as="sourcePoint"/><mxPoint x="-70" y="490" as="targetPoint"/><Array as="points"><mxPoint x="-70" y="840"/><mxPoint x="-70" y="610"/><mxPoint x="-70" y="520"/></Array></mxGeometry></mxCell><mxCell id="278" value="" style="endArrow=none;dashed=1;html=1;rounded=0;entryX=0.5;entryY=1;entryDx=0;entryDy=0;exitX=0.622;exitY=0;exitDx=0;exitDy=0;exitPerimeter=0;strokeWidth=2;strokeColor=#000000;" parent="1" edge="1"><mxGeometry width="50" height="50" relative="1" as="geometry"><mxPoint x="-65.48000000000002" y="590" as="sourcePoint"/><mxPoint x="-65" y="590" as="targetPoint"/></mxGeometry></mxCell><mxCell id="288" value="" style="swimlane;startSize=0;strokeColor=#000000;fontColor=#0D0D0D;fillColor=#2A2A2A;strokeWidth=2;" parent="1" vertex="1"><mxGeometry x="330" y="60" width="100" height="60" as="geometry"/></mxCell><mxCell id="289" value="AddOptional" style="text;html=1;align=center;verticalAlign=middle;resizable=0;points=[];autosize=1;strokeColor=none;fillColor=none;fontColor=#0D0D0D;" parent="288" vertex="1"><mxGeometry x="5" y="15" width="90" height="30" as="geometry"/></mxCell><mxCell id="297" style="edgeStyle=orthogonalEdgeStyle;rounded=0;orthogonalLoop=1;jettySize=auto;html=1;strokeColor=#0D0D0D;endArrow=none;endFill=0;dashed=1;strokeWidth=2;startArrow=none;" parent="1" source="298" edge="1" target="454"><mxGeometry relative="1" as="geometry"><mxPoint x="529" y="990" as="targetPoint"/></mxGeometry></mxCell><mxCell id="290" value="" style="swimlane;startSize=0;strokeColor=#000000;fontColor=#0D0D0D;fillColor=#2A2A2A;strokeWidth=2;" parent="1" vertex="1"><mxGeometry x="480" y="60" width="100" height="60" as="geometry"/></mxCell><mxCell id="291" value="CatalogoModel" style="text;html=1;align=center;verticalAlign=middle;resizable=0;points=[];autosize=1;strokeColor=none;fillColor=none;fontColor=#0D0D0D;" parent="290" vertex="1"><mxGeometry y="15" width="100" height="30" as="geometry"/></mxCell><mxCell id="298" value="" style="swimlane;startSize=0;labelBackgroundColor=none;strokeColor=#000000;strokeWidth=2;fontColor=#0D0D0D;fillColor=#2A2A2A;" parent="1" vertex="1"><mxGeometry x="525" y="170" width="10" height="80" as="geometry"/></mxCell><mxCell id="302" value="" style="edgeStyle=orthogonalEdgeStyle;rounded=0;orthogonalLoop=1;jettySize=auto;html=1;strokeColor=#0D0D0D;endArrow=none;endFill=0;dashed=1;strokeWidth=2;" parent="1" source="290" target="298" edge="1"><mxGeometry relative="1" as="geometry"><mxPoint x="530" y="150" as="sourcePoint"/><mxPoint x="530" y="480" as="targetPoint"/></mxGeometry></mxCell><mxCell id="311" style="edgeStyle=orthogonalEdgeStyle;rounded=0;orthogonalLoop=1;jettySize=auto;html=1;exitX=1;exitY=0.25;exitDx=0;exitDy=0;dashed=1;strokeColor=#0D0D0D;strokeWidth=2;endArrow=classic;endFill=1;" parent="1" edge="1"><mxGeometry relative="1" as="geometry"><mxPoint x="525" y="220" as="sourcePoint"/><mxPoint x="85" y="220" as="targetPoint"/></mxGeometry></mxCell><mxCell id="320" value="getSelectedAuto" style="text;html=1;strokeColor=none;fillColor=none;align=center;verticalAlign=middle;whiteSpace=wrap;rounded=0;labelBackgroundColor=none;strokeWidth=2;fontColor=#0D0D0D;" parent="1" vertex="1"><mxGeometry x="275" y="160" width="60" height="30" as="geometry"/></mxCell><mxCell id="321" value="riempi_form" style="text;html=1;strokeColor=none;fillColor=none;align=center;verticalAlign=middle;whiteSpace=wrap;rounded=0;labelBackgroundColor=none;strokeWidth=2;fontColor=#0D0D0D;" parent="1" vertex="1"><mxGeometry x="250" y="230" width="120" height="20" as="geometry"/></mxCell><mxCell id="324" value="" style="endArrow=classic;html=1;rounded=0;dashed=1;strokeColor=#0D0D0D;strokeWidth=2;entryX=-0.088;entryY=0.166;entryDx=0;entryDy=0;entryPerimeter=0;" parent="1" edge="1" target="426"><mxGeometry width="50" height="50" relative="1" as="geometry"><mxPoint x="-70" y="330" as="sourcePoint"/><mxPoint x="70" y="330" as="targetPoint"/></mxGeometry></mxCell><mxCell id="325" value="inserisciModello" style="text;html=1;strokeColor=none;fillColor=none;align=center;verticalAlign=middle;whiteSpace=wrap;rounded=0;labelBackgroundColor=none;strokeWidth=2;fontColor=#0D0D0D;" parent="1" vertex="1"><mxGeometry x="-30" y="294" width="60" height="30" as="geometry"/></mxCell><mxCell id="329" value="" style="group" parent="1" vertex="1" connectable="0"><mxGeometry x="-20" y="-340" width="610" height="150" as="geometry"/></mxCell><mxCell id="330" value="&lt;b&gt;alt&lt;/b&gt;" style="shape=umlFrame;whiteSpace=wrap;html=1;labelBackgroundColor=none;strokeColor=#000000;strokeWidth=2;fontColor=#0D0D0D;fillColor=none;width=100;height=20;" parent="329" vertex="1"><mxGeometry width="610" height="150" as="geometry"/></mxCell><mxCell id="331" value="" style="endArrow=none;html=1;rounded=0;dashed=1;strokeColor=#0D0D0D;strokeWidth=2;exitX=0.003;exitY=0.607;exitDx=0;exitDy=0;exitPerimeter=0;entryX=1.008;entryY=0.595;entryDx=0;entryDy=0;entryPerimeter=0;" parent="329" source="330" target="330" edge="1"><mxGeometry width="50" height="50" relative="1" as="geometry"><mxPoint x="280" as="sourcePoint"/><mxPoint x="330" y="-50" as="targetPoint"/></mxGeometry></mxCell><mxCell id="332" value="[dati coerenti]" style="text;html=1;strokeColor=none;fillColor=none;align=center;verticalAlign=middle;whiteSpace=wrap;rounded=0;labelBackgroundColor=none;strokeWidth=2;fontColor=#0D0D0D;" parent="329" vertex="1"><mxGeometry x="130" width="190" height="30" as="geometry"/></mxCell><mxCell id="333" value="[errore]" style="text;html=1;strokeColor=none;fillColor=none;align=center;verticalAlign=middle;whiteSpace=wrap;rounded=0;labelBackgroundColor=none;strokeWidth=2;fontColor=#0D0D0D;" parent="329" vertex="1"><mxGeometry x="130" y="90" width="190" height="30" as="geometry"/></mxCell><mxCell id="336" value="setTempAuto" style="text;html=1;strokeColor=none;fillColor=none;align=center;verticalAlign=middle;whiteSpace=wrap;rounded=0;labelBackgroundColor=none;strokeWidth=2;fontColor=#0D0D0D;" parent="1" vertex="1"><mxGeometry x="240" y="400" width="120" height="30" as="geometry"/></mxCell><mxCell id="338" value="" style="endArrow=classic;html=1;rounded=0;dashed=1;strokeColor=#0D0D0D;strokeWidth=2;exitX=1.062;exitY=0.337;exitDx=0;exitDy=0;exitPerimeter=0;" parent="1" edge="1" source="432"><mxGeometry width="50" height="50" relative="1" as="geometry"><mxPoint x="80" y="440" as="sourcePoint"/><mxPoint x="230" y="440" as="targetPoint"/></mxGeometry></mxCell><mxCell id="340" value="nextPage" style="text;html=1;strokeColor=none;fillColor=none;align=center;verticalAlign=middle;whiteSpace=wrap;rounded=0;labelBackgroundColor=none;strokeWidth=2;fontColor=#0D0D0D;" parent="1" vertex="1"><mxGeometry x="130" y="420" width="75" height="20" as="geometry"/></mxCell><mxCell id="342" value="inserisciImmagini" style="text;html=1;strokeColor=none;fillColor=none;align=center;verticalAlign=middle;whiteSpace=wrap;rounded=0;labelBackgroundColor=none;strokeWidth=2;fontColor=#0D0D0D;" parent="1" vertex="1"><mxGeometry x="-50" y="580" width="120" height="30" as="geometry"/></mxCell><mxCell id="413" style="edgeStyle=orthogonalEdgeStyle;rounded=0;orthogonalLoop=1;jettySize=auto;html=1;exitX=0.25;exitY=0;exitDx=0;exitDy=0;" edge="1" parent="1" source="344"><mxGeometry relative="1" as="geometry"><mxPoint x="660" y="415" as="targetPoint"/></mxGeometry></mxCell><mxCell id="353" value="" style="endArrow=classic;html=1;rounded=0;strokeColor=#191919;strokeWidth=2;fontColor=#0D0D0D;entryX=1.035;entryY=0.833;entryDx=0;entryDy=0;entryPerimeter=0;" parent="1" edge="1" target="436"><mxGeometry width="50" height="50" relative="1" as="geometry"><mxPoint x="240" y="610" as="sourcePoint"/><mxPoint x="240" y="650" as="targetPoint"/><Array as="points"><mxPoint x="280" y="610"/><mxPoint x="280" y="650"/></Array></mxGeometry></mxCell><mxCell id="354" value="validation" style="text;html=1;strokeColor=none;fillColor=none;align=center;verticalAlign=middle;whiteSpace=wrap;rounded=0;labelBackgroundColor=none;strokeWidth=2;fontColor=#0D0D0D;" parent="1" vertex="1"><mxGeometry x="260" y="630" width="120" height="30" as="geometry"/></mxCell><mxCell id="356" value="nextPage" style="text;html=1;strokeColor=none;fillColor=none;align=center;verticalAlign=middle;whiteSpace=wrap;rounded=0;labelBackgroundColor=none;strokeWidth=2;fontColor=#0D0D0D;" parent="1" vertex="1"><mxGeometry x="260" y="790" width="85" height="10" as="geometry"/></mxCell><mxCell id="357" value="" style="endArrow=none;html=1;rounded=0;fontColor=#0D0D0D;strokeColor=#191919;strokeWidth=2;dashed=1;entryX=0.5;entryY=1;entryDx=0;entryDy=0;fontStyle=1;startArrow=none;" parent="1" edge="1" target="288" source="460"><mxGeometry width="50" height="50" relative="1" as="geometry"><mxPoint x="380" y="720" as="sourcePoint"/><mxPoint x="379.5200000000001" y="150" as="targetPoint"/></mxGeometry></mxCell><mxCell id="360" value="tempAuto.addImage" style="text;html=1;strokeColor=none;fillColor=none;align=center;verticalAlign=middle;whiteSpace=wrap;rounded=0;labelBackgroundColor=none;strokeWidth=2;fontColor=#0D0D0D;" parent="1" vertex="1"><mxGeometry x="400" y="720" width="120" height="30" as="geometry"/></mxCell><mxCell id="365" value="inserisciOptionalColore" style="text;html=1;strokeColor=none;fillColor=none;align=center;verticalAlign=middle;whiteSpace=wrap;rounded=0;labelBackgroundColor=none;strokeWidth=2;fontColor=#0D0D0D;" parent="1" vertex="1"><mxGeometry x="-60" y="880" width="120" height="30" as="geometry"/></mxCell><mxCell id="366" value="" style="endArrow=classic;html=1;rounded=0;strokeColor=#191919;strokeWidth=2;fontColor=#0D0D0D;entryX=1.091;entryY=0.75;entryDx=0;entryDy=0;entryPerimeter=0;" parent="1" edge="1" target="448"><mxGeometry width="50" height="50" relative="1" as="geometry"><mxPoint x="390" y="910" as="sourcePoint"/><mxPoint x="390" y="950" as="targetPoint"/><Array as="points"><mxPoint x="420" y="910"/><mxPoint x="420" y="950"/></Array></mxGeometry></mxCell><mxCell id="367" value="validation" style="text;html=1;strokeColor=none;fillColor=none;align=center;verticalAlign=middle;whiteSpace=wrap;rounded=0;labelBackgroundColor=none;strokeWidth=2;fontColor=#0D0D0D;" parent="1" vertex="1"><mxGeometry x="390" y="885" width="70" height="20" as="geometry"/></mxCell><mxCell id="368" value="" style="endArrow=classic;html=1;rounded=0;dashed=1;strokeColor=#0D0D0D;strokeWidth=2;exitX=1;exitY=0.25;exitDx=0;exitDy=0;" parent="1" edge="1" source="454"><mxGeometry width="50" height="50" relative="1" as="geometry"><mxPoint x="380" y="1020" as="sourcePoint"/><mxPoint x="720" y="1020" as="targetPoint"/></mxGeometry></mxCell><mxCell id="369" value="tempAuto.addOptional&amp;amp;Motor" style="text;html=1;strokeColor=none;fillColor=none;align=center;verticalAlign=middle;whiteSpace=wrap;rounded=0;labelBackgroundColor=none;strokeWidth=2;fontColor=#0D0D0D;" parent="1" vertex="1"><mxGeometry x="590" y="1000" width="60" height="25" as="geometry"/></mxCell><mxCell id="376" value="" style="endArrow=classic;html=1;rounded=0;strokeColor=#191919;strokeWidth=2;fontColor=#0D0D0D;exitX=1.117;exitY=0.499;exitDx=0;exitDy=0;exitPerimeter=0;entryX=1.086;entryY=0.998;entryDx=0;entryDy=0;entryPerimeter=0;" parent="1" edge="1" target="426" source="426"><mxGeometry width="50" height="50" relative="1" as="geometry"><mxPoint x="80" y="350" as="sourcePoint"/><mxPoint x="90" y="380" as="targetPoint"/><Array as="points"><mxPoint x="120" y="350"/><mxPoint x="120" y="380"/></Array></mxGeometry></mxCell><mxCell id="377" value="validation" style="text;html=1;strokeColor=none;fillColor=none;align=center;verticalAlign=middle;whiteSpace=wrap;rounded=0;labelBackgroundColor=none;strokeWidth=2;fontColor=#0D0D0D;" parent="1" vertex="1"><mxGeometry x="100" y="350" width="120" height="30" as="geometry"/></mxCell><mxCell id="382" value="[errore]" style="text;html=1;strokeColor=none;fillColor=none;align=center;verticalAlign=middle;whiteSpace=wrap;rounded=0;labelBackgroundColor=none;strokeWidth=2;fontColor=#0D0D0D;" parent="1" vertex="1"><mxGeometry x="100" y="520" width="100" height="48" as="geometry"/></mxCell><mxCell id="384" value="retry" style="text;html=1;strokeColor=none;fillColor=none;align=center;verticalAlign=middle;whiteSpace=wrap;rounded=0;labelBackgroundColor=none;strokeWidth=2;fontColor=#0D0D0D;" parent="1" vertex="1"><mxGeometry x="-30" y="529" width="60" height="30" as="geometry"/></mxCell><mxCell id="391" value="" style="endArrow=classic;html=1;rounded=0;dashed=1;strokeColor=#0D0D0D;strokeWidth=2;exitX=0.053;exitY=0.999;exitDx=0;exitDy=0;exitPerimeter=0;entryX=-0.09;entryY=0.75;entryDx=0;entryDy=0;entryPerimeter=0;" parent="1" edge="1" target="454" source="392"><mxGeometry width="50" height="50" relative="1" as="geometry"><mxPoint x="380" y="1050" as="sourcePoint"/><mxPoint x="530" y="1050" as="targetPoint"/></mxGeometry></mxCell><mxCell id="392" value="saveTempAuto" style="text;html=1;strokeColor=none;fillColor=none;align=center;verticalAlign=middle;whiteSpace=wrap;rounded=0;labelBackgroundColor=none;strokeWidth=2;fontColor=#0D0D0D;" parent="1" vertex="1"><mxGeometry x="380" y="1020" width="120" height="30" as="geometry"/></mxCell><mxCell id="393" value="" style="endArrow=classic;html=1;rounded=0;dashed=1;strokeColor=#0D0D0D;strokeWidth=2;entryX=0.001;entryY=0.381;entryDx=0;entryDy=0;entryPerimeter=0;" parent="1" edge="1" target="397"><mxGeometry width="50" height="50" relative="1" as="geometry"><mxPoint x="520" y="1080" as="sourcePoint"/><mxPoint x="-80" y="1080" as="targetPoint"/></mxGeometry></mxCell><mxCell id="394" value="goBack" style="text;html=1;strokeColor=none;fillColor=none;align=center;verticalAlign=middle;whiteSpace=wrap;rounded=0;labelBackgroundColor=none;strokeWidth=2;fontColor=#0D0D0D;" parent="1" vertex="1"><mxGeometry x="285" y="1080" width="120" height="30" as="geometry"/></mxCell><mxCell id="401" value="" style="group" vertex="1" connectable="0" parent="1"><mxGeometry x="-70" y="700" width="720" height="170" as="geometry"/></mxCell><mxCell id="402" value="&lt;b&gt;alt&lt;/b&gt;" style="shape=umlFrame;whiteSpace=wrap;html=1;labelBackgroundColor=none;strokeColor=#000000;strokeWidth=2;fontColor=#0D0D0D;fillColor=none;width=100;height=20;" vertex="1" parent="401"><mxGeometry y="-10" width="720" height="180" as="geometry"/></mxCell><mxCell id="403" value="" style="endArrow=none;html=1;rounded=0;dashed=1;strokeColor=#0D0D0D;strokeWidth=2;exitX=0.003;exitY=0.607;exitDx=0;exitDy=0;exitPerimeter=0;" edge="1" parent="401" source="402"><mxGeometry width="50" height="50" relative="1" as="geometry"><mxPoint x="330.4918032786885" as="sourcePoint"/><mxPoint x="719.9999999999999" y="102" as="targetPoint"/><Array as="points"><mxPoint x="719.9999999999999" y="102"/></Array></mxGeometry></mxCell><mxCell id="404" value="[dati coerenti]" style="text;html=1;strokeColor=none;fillColor=none;align=center;verticalAlign=middle;whiteSpace=wrap;rounded=0;labelBackgroundColor=none;strokeWidth=2;fontColor=#0D0D0D;" vertex="1" parent="401"><mxGeometry x="175.14" y="11.333333333333332" width="104.86" height="22.666666666666664" as="geometry"/></mxCell><mxCell id="405" value="[errore]" style="text;html=1;strokeColor=none;fillColor=none;align=center;verticalAlign=middle;whiteSpace=wrap;rounded=0;labelBackgroundColor=none;strokeWidth=2;fontColor=#0D0D0D;" vertex="1" parent="401"><mxGeometry x="153.4426229508197" y="102" width="224.2622950819672" height="34" as="geometry"/></mxCell><mxCell id="460" value="" style="swimlane;startSize=0;labelBackgroundColor=none;strokeColor=#000000;strokeWidth=2;fontColor=#0D0D0D;fillColor=#2A2A2A;fontStyle=0" vertex="1" parent="401"><mxGeometry x="445" y="22.666666666666664" width="10" height="68" as="geometry"/></mxCell><mxCell id="446" value="" style="swimlane;startSize=0;labelBackgroundColor=none;strokeColor=#000000;strokeWidth=2;fontColor=#0D0D0D;fillColor=#2A2A2A;" vertex="1" parent="401"><mxGeometry x="295.26702702702704" y="22.666666666666664" width="9.72972972972973" height="68" as="geometry"/></mxCell><mxCell id="464" value="" style="endArrow=classic;html=1;rounded=0;strokeColor=#000000;strokeWidth=2;startSize=7;sourcePerimeterSpacing=0;targetPerimeterSpacing=0;jumpSize=6;exitX=1.179;exitY=0.559;exitDx=0;exitDy=0;exitPerimeter=0;entryX=-0.1;entryY=0.549;entryDx=0;entryDy=0;entryPerimeter=0;" edge="1" parent="401" source="446" target="460"><mxGeometry width="50" height="50" relative="1" as="geometry"><mxPoint x="350" y="100" as="sourcePoint"/><mxPoint x="440" y="60" as="targetPoint"/></mxGeometry></mxCell><mxCell id="465" value="" style="endArrow=classic;html=1;rounded=0;strokeColor=#000000;strokeWidth=2;startSize=7;sourcePerimeterSpacing=0;targetPerimeterSpacing=0;jumpSize=6;exitX=1.179;exitY=0.559;exitDx=0;exitDy=0;exitPerimeter=0;" edge="1" parent="401"><mxGeometry width="50" height="50" relative="1" as="geometry"><mxPoint x="454.9983783783782" y="50.678666666666686" as="sourcePoint"/><mxPoint x="590" y="50" as="targetPoint"/></mxGeometry></mxCell><mxCell id="406" value="" style="endArrow=classic;html=1;rounded=0;dashed=1;strokeColor=#0D0D0D;strokeWidth=2;entryX=-0.108;entryY=0.167;entryDx=0;entryDy=0;entryPerimeter=0;" edge="1" parent="1" target="436"><mxGeometry width="50" height="50" relative="1" as="geometry"><mxPoint x="-60" y="610" as="sourcePoint"/><mxPoint x="220" y="610" as="targetPoint"/></mxGeometry></mxCell><mxCell id="409" value="" style="endArrow=classic;html=1;rounded=0;dashed=1;strokeColor=#0D0D0D;strokeWidth=2;" edge="1" parent="1"><mxGeometry width="50" height="50" relative="1" as="geometry"><mxPoint x="-70" y="910" as="sourcePoint"/><mxPoint x="370" y="910" as="targetPoint"/></mxGeometry></mxCell><mxCell id="419" value="" style="endArrow=classic;html=1;rounded=0;dashed=1;strokeColor=#0D0D0D;strokeWidth=2;" edge="1" parent="1"><mxGeometry width="50" height="50" relative="1" as="geometry"><mxPoint x="230" y="840" as="sourcePoint"/><mxPoint x="-70" y="840" as="targetPoint"/></mxGeometry></mxCell><mxCell id="420" value="retry" style="text;html=1;strokeColor=none;fillColor=none;align=center;verticalAlign=middle;whiteSpace=wrap;rounded=0;labelBackgroundColor=none;strokeWidth=2;fontColor=#0D0D0D;" vertex="1" parent="1"><mxGeometry x="80" y="810" width="120" height="30" as="geometry"/></mxCell><mxCell id="422" value="" style="endArrow=none;dashed=1;html=1;rounded=0;strokeColor=#000000;exitX=0.901;exitY=1;exitDx=0;exitDy=0;exitPerimeter=0;targetPerimeterSpacing=0;jumpSize=6;startSize=7;sourcePerimeterSpacing=0;strokeWidth=2;" edge="1" parent="1" source="397"><mxGeometry width="50" height="50" relative="1" as="geometry"><mxPoint x="660" y="540" as="sourcePoint"/><mxPoint x="660" y="480" as="targetPoint"/><Array as="points"><mxPoint x="660" y="610"/></Array></mxGeometry></mxCell><mxCell id="374" value="[caso selezionata auto per modifica]" style="text;html=1;strokeColor=none;fillColor=none;align=center;verticalAlign=middle;whiteSpace=wrap;rounded=0;labelBackgroundColor=none;strokeWidth=2;fontColor=#0D0D0D;" parent="1" vertex="1"><mxGeometry x="71.22999999999999" y="230" width="177.54" height="20" as="geometry"/></mxCell><mxCell id="344" value="" style="swimlane;startSize=0;strokeColor=#000000;fontColor=#0D0D0D;fillColor=#2A2A2A;strokeWidth=2;" parent="1" vertex="1"><mxGeometry x="600" y="410" width="140" height="70" as="geometry"/></mxCell><mxCell id="345" value="AutoNuova" style="text;html=1;align=center;verticalAlign=middle;resizable=0;points=[];autosize=1;strokeColor=none;fillColor=none;fontColor=#0D0D0D;" parent="344" vertex="1"><mxGeometry x="5.004615384615385" y="9.998255033557045" width="80" height="30" as="geometry"/></mxCell><mxCell id="386" value="[corretto]" style="text;html=1;strokeColor=none;fillColor=none;align=center;verticalAlign=middle;whiteSpace=wrap;rounded=0;labelBackgroundColor=none;strokeWidth=2;fontColor=#0D0D0D;" parent="344" vertex="1"><mxGeometry x="-671.0000000000001" y="25.055928411633108" width="178.30769230769235" height="34.36241610738254" as="geometry"/></mxCell><mxCell id="416" value="" style="endArrow=classic;html=1;rounded=0;dashed=1;strokeColor=#0D0D0D;strokeWidth=2;" edge="1" parent="344"><mxGeometry width="50" height="50" relative="1" as="geometry"><mxPoint x="-70" y="10" as="sourcePoint"/><mxPoint y="10" as="targetPoint"/></mxGeometry></mxCell><mxCell id="351" value="create" style="text;html=1;strokeColor=none;fillColor=none;align=center;verticalAlign=middle;whiteSpace=wrap;rounded=0;labelBackgroundColor=none;strokeWidth=2;fontColor=#0D0D0D;" parent="1" vertex="1"><mxGeometry x="500" y="410" width="112.62" as="geometry"/></mxCell><mxCell id="414" style="edgeStyle=orthogonalEdgeStyle;rounded=0;orthogonalLoop=1;jettySize=auto;html=1;exitX=0;exitY=0;exitDx=0;exitDy=0;" edge="1" parent="1" source="351" target="351"><mxGeometry relative="1" as="geometry"/></mxCell><mxCell id="335" value="" style="endArrow=classic;html=1;rounded=0;dashed=1;strokeColor=#0D0D0D;strokeWidth=2;" parent="1" edge="1"><mxGeometry width="50" height="50" relative="1" as="geometry"><mxPoint x="-70" y="420" as="sourcePoint"/><mxPoint x="530" y="420" as="targetPoint"/><Array as="points"/></mxGeometry></mxCell><mxCell id="372" value="&lt;b&gt;opt&lt;/b&gt;" style="shape=umlFrame;whiteSpace=wrap;html=1;labelBackgroundColor=none;strokeColor=#000000;strokeWidth=2;fontColor=#0D0D0D;fillColor=none;width=100;height=20;" parent="1" vertex="1"><mxGeometry x="60" y="140" width="480" height="160" as="geometry"/></mxCell><mxCell id="380" value="" style="endArrow=none;html=1;rounded=0;dashed=1;strokeColor=#0D0D0D;strokeWidth=2;" parent="1" edge="1"><mxGeometry width="50" height="50" relative="1" as="geometry"><mxPoint x="-70" y="520" as="sourcePoint"/><mxPoint x="740" y="520" as="targetPoint"/></mxGeometry></mxCell><mxCell id="399" value="[dati coerenti]" style="text;html=1;strokeColor=none;fillColor=none;align=center;verticalAlign=middle;whiteSpace=wrap;rounded=0;labelBackgroundColor=none;strokeWidth=2;fontColor=#0D0D0D;" vertex="1" parent="1"><mxGeometry x="112.62295081967213" y="1080" width="252.2950819672131" height="20.526315789473685" as="geometry"/></mxCell><mxCell id="400" value="[errore]" style="text;html=1;strokeColor=none;fillColor=none;align=center;verticalAlign=middle;whiteSpace=wrap;rounded=0;labelBackgroundColor=none;strokeWidth=2;fontColor=#0D0D0D;" vertex="1" parent="1"><mxGeometry x="112.62295081967213" y="1141.578947368421" width="252.2950819672131" height="20.526315789473685" as="geometry"/></mxCell><mxCell id="397" value="&lt;b&gt;alt&lt;/b&gt;" style="shape=umlFrame;whiteSpace=wrap;html=1;labelBackgroundColor=none;strokeColor=#000000;strokeWidth=2;fontColor=#0D0D0D;fillColor=none;width=100;height=20;" vertex="1" parent="1"><mxGeometry x="-70" y="1000" width="810" height="210" as="geometry"/></mxCell><mxCell id="398" value="" style="endArrow=none;html=1;rounded=0;dashed=1;strokeColor=#0D0D0D;strokeWidth=2;entryX=1;entryY=0.619;entryDx=0;entryDy=0;entryPerimeter=0;" edge="1" parent="1" target="397"><mxGeometry width="50" height="50" relative="1" as="geometry"><mxPoint x="-70" y="1130" as="sourcePoint"/><mxPoint x="740" y="1160" as="targetPoint"/></mxGeometry></mxCell><mxCell id="424" value="retry&lt;br&gt;" style="text;html=1;strokeColor=none;fillColor=none;align=center;verticalAlign=middle;whiteSpace=wrap;rounded=0;labelBackgroundColor=none;strokeWidth=2;fontColor=#0D0D0D;" vertex="1" parent="1"><mxGeometry x="100" y="1162.1100000000001" width="120" height="30" as="geometry"/></mxCell><mxCell id="423" value="" style="endArrow=classic;html=1;rounded=0;dashed=1;strokeColor=#0D0D0D;strokeWidth=2;" edge="1" parent="1"><mxGeometry width="50" height="50" relative="1" as="geometry"><mxPoint x="380" y="1192.1100000000001" as="sourcePoint"/><mxPoint x="-70" y="1192.1100000000001" as="targetPoint"/></mxGeometry></mxCell><mxCell id="426" value="" style="swimlane;startSize=0;labelBackgroundColor=none;strokeColor=#000000;strokeWidth=2;fontColor=#0D0D0D;fillColor=#2A2A2A;" vertex="1" parent="1"><mxGeometry x="75" y="320" width="10" height="60" as="geometry"/></mxCell><mxCell id="429" value="" style="endArrow=none;html=1;rounded=0;fontColor=#0D0D0D;strokeColor=#191919;strokeWidth=2;dashed=1;entryX=0.497;entryY=1.03;entryDx=0;entryDy=0;entryPerimeter=0;" edge="1" parent="426"><mxGeometry width="50" height="50" relative="1" as="geometry"><mxPoint x="5.000000000000014" as="sourcePoint"/><mxPoint x="5.000000000000071" y="-69.99999999999994" as="targetPoint"/></mxGeometry></mxCell><mxCell id="432" value="" style="swimlane;startSize=0;labelBackgroundColor=none;strokeColor=#000000;strokeWidth=2;fontColor=#0D0D0D;fillColor=#2A2A2A;" vertex="1" parent="1"><mxGeometry x="75" y="420" width="10" height="60" as="geometry"/></mxCell><mxCell id="433" value="" style="endArrow=none;html=1;rounded=0;fontColor=#0D0D0D;strokeColor=#191919;strokeWidth=2;dashed=1;" edge="1" parent="432"><mxGeometry width="50" height="50" relative="1" as="geometry"><mxPoint x="5.000000000000014" as="sourcePoint"/><mxPoint x="5" y="-40" as="targetPoint"/></mxGeometry></mxCell><mxCell id="434" style="edgeStyle=orthogonalEdgeStyle;rounded=0;jumpSize=6;orthogonalLoop=1;jettySize=auto;html=1;exitX=0;exitY=1;exitDx=0;exitDy=0;entryX=-0.068;entryY=1.003;entryDx=0;entryDy=0;entryPerimeter=0;strokeColor=#000000;strokeWidth=2;startSize=7;sourcePerimeterSpacing=0;targetPerimeterSpacing=0;" edge="1" parent="1" source="432" target="432"><mxGeometry relative="1" as="geometry"/></mxCell><mxCell id="435" value="" style="endArrow=none;html=1;rounded=0;fontColor=#0D0D0D;strokeColor=#191919;strokeWidth=2;dashed=1;entryX=0.185;entryY=1;entryDx=0;entryDy=0;entryPerimeter=0;startArrow=none;" edge="1" parent="1" target="397"><mxGeometry width="50" height="50" relative="1" as="geometry"><mxPoint x="80" y="480" as="sourcePoint"/><mxPoint x="80" y="1190" as="targetPoint"/><Array as="points"><mxPoint x="80" y="480"/></Array></mxGeometry></mxCell><mxCell id="436" value="" style="swimlane;startSize=0;labelBackgroundColor=none;strokeColor=#000000;strokeWidth=2;fontColor=#0D0D0D;fillColor=#2A2A2A;fontStyle=0" vertex="1" parent="1"><mxGeometry x="225" y="600" width="10" height="60" as="geometry"/></mxCell><mxCell id="447" value="" style="endArrow=none;html=1;rounded=0;fontColor=#0D0D0D;strokeColor=#191919;strokeWidth=2;dashed=1;entryX=0.497;entryY=1.03;entryDx=0;entryDy=0;entryPerimeter=0;" edge="1" parent="1" target="446"><mxGeometry width="50" height="50" relative="1" as="geometry"><mxPoint x="230" y="1210" as="sourcePoint"/><mxPoint x="160" y="1380" as="targetPoint"/></mxGeometry></mxCell><mxCell id="448" value="" style="swimlane;startSize=0;labelBackgroundColor=none;strokeColor=#000000;strokeWidth=2;fontColor=#0D0D0D;fillColor=#2A2A2A;" vertex="1" parent="1"><mxGeometry x="375" y="905" width="10" height="60" as="geometry"/></mxCell><mxCell id="449" value="" style="endArrow=none;html=1;rounded=0;fontColor=#0D0D0D;strokeColor=#191919;strokeWidth=2;dashed=1;entryX=0.5;entryY=1;entryDx=0;entryDy=0;" edge="1" parent="1"><mxGeometry width="50" height="50" relative="1" as="geometry"><mxPoint x="380" y="1000" as="sourcePoint"/><mxPoint x="380" y="965" as="targetPoint"/></mxGeometry></mxCell><mxCell id="450" value="" style="swimlane;startSize=0;labelBackgroundColor=none;strokeColor=#000000;strokeWidth=2;fontColor=#0D0D0D;fillColor=#2A2A2A;" vertex="1" parent="1"><mxGeometry x="375" y="1005" width="10" height="60" as="geometry"/></mxCell><mxCell id="379" value="&lt;b&gt;alt&lt;/b&gt;" style="shape=umlFrame;whiteSpace=wrap;html=1;labelBackgroundColor=none;strokeColor=#000000;strokeWidth=2;fontColor=#0D0D0D;fillColor=none;width=100;height=20;" parent="1" vertex="1"><mxGeometry x="-70" y="390" width="820" height="190" as="geometry"/></mxCell><mxCell id="452" value="" style="endArrow=none;html=1;rounded=0;fontColor=#0D0D0D;strokeColor=#191919;strokeWidth=2;dashed=1;entryX=0.5;entryY=1;entryDx=0;entryDy=0;" edge="1" parent="1"><mxGeometry width="50" height="50" relative="1" as="geometry"><mxPoint x="380" y="1190" as="sourcePoint"/><mxPoint x="380" y="1059.9999999999998" as="targetPoint"/></mxGeometry></mxCell><mxCell id="454" value="" style="swimlane;startSize=0;labelBackgroundColor=none;strokeColor=#000000;strokeWidth=2;fontColor=#0D0D0D;fillColor=#2A2A2A;" vertex="1" parent="1"><mxGeometry x="525" y="1005" width="10" height="60" as="geometry"/></mxCell><mxCell id="455" value="" style="endArrow=none;html=1;rounded=0;fontColor=#0D0D0D;strokeColor=#191919;strokeWidth=2;dashed=1;entryX=0.5;entryY=1;entryDx=0;entryDy=0;" edge="1" parent="1"><mxGeometry width="50" height="50" relative="1" as="geometry"><mxPoint x="530" y="1210" as="sourcePoint"/><mxPoint x="529.69" y="1065.0000000000002" as="targetPoint"/></mxGeometry></mxCell><mxCell id="456" value="" style="endArrow=none;html=1;rounded=0;fontColor=#0D0D0D;strokeColor=#191919;strokeWidth=2;dashed=1;entryX=0;entryY=0.25;entryDx=0;entryDy=0;exitX=0.043;exitY=-0.009;exitDx=0;exitDy=0;exitPerimeter=0;" edge="1" parent="1" source="392" target="454"><mxGeometry width="50" height="50" relative="1" as="geometry"><mxPoint x="390" y="1010" as="sourcePoint"/><mxPoint x="520" y="1020" as="targetPoint"/><Array as="points"><mxPoint x="450" y="1020"/></Array></mxGeometry></mxCell><mxCell id="457" value="" style="swimlane;startSize=0;labelBackgroundColor=none;strokeColor=#000000;strokeWidth=2;fontColor=#0D0D0D;fillColor=#2A2A2A;" vertex="1" parent="1"><mxGeometry x="720" y="1005" width="10" height="60" as="geometry"/></mxCell><mxCell id="459" value="" style="endArrow=classic;html=1;rounded=0;dashed=1;strokeColor=#0D0D0D;strokeWidth=2;entryX=-0.001;entryY=0.845;entryDx=0;entryDy=0;entryPerimeter=0;" edge="1" parent="1" target="379"><mxGeometry width="50" height="50" relative="1" as="geometry"><mxPoint x="80" y="550" as="sourcePoint"/><mxPoint x="50" y="580" as="targetPoint"/><Array as="points"/></mxGeometry></mxCell><mxCell id="461" value="" style="endArrow=none;html=1;rounded=0;fontColor=#0D0D0D;strokeColor=#191919;strokeWidth=2;dashed=1;entryX=0.5;entryY=1;entryDx=0;entryDy=0;fontStyle=1" edge="1" parent="1" target="460"><mxGeometry width="50" height="50" relative="1" as="geometry"><mxPoint x="380" y="810" as="sourcePoint"/><mxPoint x="380" y="120" as="targetPoint"/></mxGeometry></mxCell><mxCell id="443" value="" style="endArrow=none;html=1;rounded=0;fontColor=#0D0D0D;strokeColor=#191919;strokeWidth=2;dashed=1;startArrow=none;entryX=0.512;entryY=1.026;entryDx=0;entryDy=0;entryPerimeter=0;exitX=0.493;exitY=-0.037;exitDx=0;exitDy=0;exitPerimeter=0;" edge="1" parent="1" source="446" target="436"><mxGeometry width="50" height="50" relative="1" as="geometry"><mxPoint x="221.89189189189193" y="706.1212713068181" as="sourcePoint"/><mxPoint x="220" y="660" as="targetPoint"/><Array as="points"/></mxGeometry></mxCell><mxCell id="463" value="" style="endArrow=none;html=1;rounded=0;fontColor=#0D0D0D;strokeColor=#191919;strokeWidth=2;dashed=1;startArrow=none;entryX=0.512;entryY=1.026;entryDx=0;entryDy=0;entryPerimeter=0;" edge="1" parent="1" target="446"><mxGeometry width="50" height="50" relative="1" as="geometry"><mxPoint x="230" y="812.0125786163522" as="sourcePoint"/><mxPoint x="230.1199999999999" y="661.56" as="targetPoint"/></mxGeometry></mxCell></root></mxGraphModel></diagram></mxfile>